<svg width="30" height="30" viewBox="0 0 30 30" fill="none" xmlns="http://www.w3.org/2000/svg">
  <path d="M4 24H26C26.2652 24 26.5196 23.8946 26.7071 23.7071C26.8946 23.5196 27 23.2652 27 23V7C27 6.73478 26.8946 6.48043 26.7071 6.29289C26.5196 6.10536 26.2652 6 26 6H4C3.73478 6 3.48043 6.10536 3.29289 6.29289C3.10536 6.48043 3 6.73478 3 7V23C3 23.2652 3.10536 23.5196 3.29289 23.7071C3.48043 23.8946 3.73478 24 4 24ZM5 8H25V22H5V8Z" fill="#0A3D62"/>
  <path d="M8 18L12 14L16 18L22 12" stroke="#0A3D62" stroke-width="2" stroke-linecap="round" stroke-linejoin="round" fill="none"/>
  <path d="M22 12H18V16" stroke="#0A3D62" stroke-width="2" stroke-linecap="round" stroke-linejoin="round" fill="none"/>
</svg>
<svg width="30" height="30" viewBox="0 0 30 30" fill="none" xmlns="http://www.w3.org/2000/svg">
<path d="M3 24H27C27.2652 24 27.5196 23.8946 27.7071 23.7071C27.8946 23.5196 28 23.2652 28 23V7C28 6.73478 27.8946 6.48043 27.7071 6.29289C27.5196 6.10536 27.2652 6 27 6H3C2.73478 6 2.48043 6.10536 2.29289 6.29289C2.10536 6.48043 2 6.73478 2 7V23C2 23.2652 2.10536 23.5196 2.29289 23.7071C2.48043 23.8946 2.73478 24 3 24ZM4 8H26V22H4V8Z" fill="#0A3D62"/>
<path d="M8 18L12 14L16 18L22 12" stroke="#0A3D62" stroke-width="2" stroke-linecap="round" stroke-linejoin="round" fill="none"/>
<path d="M22 12H18V16" stroke="#0A3D62" stroke-width="2" stroke-linecap="round" stroke-linejoin="round" fill="none"/>
</svg>
