<svg width="30" height="30" viewBox="0 0 30 30" fill="none" xmlns="http://www.w3.org/2000/svg">
<path d="M29.9779 2.27203C29.9423 1.68694 29.6938 1.1351 29.2793 0.720614C28.8648 0.306131 28.3129 0.057672 27.7277 0.0221159C25.8406 -0.0903799 21.0178 0.0821133 17.0156 4.08246L16.303 4.80394H7.55299C7.23659 4.80216 6.92299 4.8633 6.63044 4.98381C6.33788 5.10432 6.07221 5.2818 5.84888 5.50591L0.703565 10.6537C0.388017 10.969 0.166595 11.366 0.0641482 11.8001C-0.0382986 12.2343 -0.0177156 12.6884 0.123587 13.1115C0.26489 13.5346 0.521321 13.9099 0.8641 14.1954C1.20688 14.4808 1.62244 14.6651 2.06415 14.7276L7.83501 15.533L14.4669 22.1643L15.2725 27.9376C15.3344 28.3793 15.5187 28.7948 15.8044 29.1373C16.0902 29.4797 16.4661 29.7354 16.8896 29.8755C17.1362 29.9579 17.3946 29.9999 17.6546 30C17.9695 30.0006 18.2814 29.9389 18.5723 29.8184C18.8633 29.6979 19.1275 29.5211 19.3497 29.298L24.498 24.1532C24.7222 23.9299 24.8997 23.6643 25.0202 23.3717C25.1407 23.0792 25.2019 22.7656 25.2001 22.4493V13.7001L25.9156 12.9846C29.9179 8.98278 30.0904 4.16046 29.9779 2.27203ZM7.55299 7.20385H13.9029L7.97302 13.1316L2.39867 12.3547L7.55299 7.20385ZM18.7152 5.7864C19.8683 4.62625 21.2558 3.72549 22.7849 3.14428C24.314 2.56307 25.9495 2.31479 27.5822 2.41603C27.6874 4.04943 27.4417 5.68643 26.8616 7.21699C26.2815 8.74756 25.3804 10.1362 24.219 11.2897L15.5995 19.9054L10.0971 14.4036L18.7152 5.7864ZM22.7999 22.4493L17.6501 27.6031L16.8716 22.0278L22.7999 16.1V22.4493ZM11.6752 23.8742C11.0002 25.3532 8.74256 28.803 2.39867 28.803C2.08039 28.803 1.77515 28.6766 1.55009 28.4516C1.32503 28.2265 1.1986 27.9213 1.1986 27.6031C1.1986 21.2598 4.64881 19.0024 6.1279 18.3259C6.27131 18.2605 6.4262 18.224 6.58373 18.2185C6.74125 18.2129 6.89833 18.2385 7.04598 18.2936C7.19363 18.3488 7.32898 18.4325 7.44428 18.5399C7.55959 18.6474 7.6526 18.7765 7.718 18.9199C7.7834 19.0633 7.81992 19.2182 7.82546 19.3757C7.831 19.5332 7.80546 19.6903 7.7503 19.8379C7.69514 19.9855 7.61144 20.1209 7.50397 20.2362C7.3965 20.3515 7.26738 20.4445 7.12396 20.5099C6.1594 20.9493 4.03077 22.3638 3.65575 26.3461C7.6385 25.9711 9.05608 23.8427 9.49261 22.8783C9.55801 22.7349 9.65102 22.6057 9.76633 22.4983C9.88163 22.3908 10.017 22.3071 10.1646 22.252C10.3123 22.1968 10.4694 22.1713 10.6269 22.1768C10.7844 22.1824 10.9393 22.2189 11.0827 22.2843C11.2261 22.3497 11.3552 22.4427 11.4627 22.558C11.5702 22.6733 11.6539 22.8086 11.709 22.9562C11.7642 23.1039 11.7897 23.2609 11.7842 23.4184C11.7787 23.576 11.7406 23.7308 11.6752 23.8742Z" fill="#0A3D62"/>
</svg>
